<?xml version="1.0" standalone="no"?>
<!DOCTYPE svg PUBLIC "-//W3C//DTD SVG 20010904//EN"
 "http://www.w3.org/TR/2001/REC-SVG-20010904/DTD/svg10.dtd">
<svg version="1.0" xmlns="http://www.w3.org/2000/svg"
 width="900.000000pt" height="900.000000pt" viewBox="0 0 900.000000 900.000000"
 preserveAspectRatio="xMidYMid meet">

<g transform="translate(0.000000,900.000000) scale(0.100000,-0.100000)"
fill="#000000" stroke="none">
<path d="M3031 7912 c-13 -24 -9 -174 4 -185 6 -6 6 -10 -2 -14 -14 -5 -18
-53 -5 -53 5 0 17 9 26 19 24 27 31 237 7 218 -12 -10 -14 -9 -8 5 9 24 -10
33 -22 10z"/>
<path d="M5690 7863 c0 -7 -6 -13 -14 -13 -11 0 -15 -18 -15 -80 0 -63 3 -80
14 -80 7 0 17 -5 21 -11 4 -7 0 -9 -14 -5 -20 7 -21 4 -19 -43 1 -28 5 -51 8
-51 8 0 4 -38 -4 -46 -13 -13 -7 -43 11 -53 9 -6 12 -11 6 -11 -7 0 -12 -25
-13 -66 -1 -37 -4 -70 -6 -75 -3 -4 3 -12 12 -18 10 -6 12 -11 6 -11 -23 0
-14 -30 10 -31 l22 0 -22 -16 c-20 -13 -23 -24 -23 -79 0 -65 11 -79 38 -52
17 17 15 31 -4 24 -8 -3 -12 -2 -9 4 3 6 13 10 22 10 12 0 13 3 3 15 -9 11 -9
22 -1 46 16 47 14 79 -5 79 -14 0 -14 3 -3 16 10 13 10 17 0 24 -11 6 -11 9 0
13 12 5 12 7 0 15 -7 5 -9 12 -4 15 13 8 16 127 4 127 -7 0 -7 9 -1 26 16 40
10 214 -7 214 -7 0 -13 9 -13 21 0 11 4 18 9 15 12 -8 12 57 0 75 -6 10 -9 10
-9 2z"/>
<path d="M3052 7665 c-31 -36 -45 -119 -17 -109 20 8 19 -6 -1 -21 -14 -10
-16 -23 -9 -88 3 -43 11 -77 17 -77 7 0 7 -4 0 -12 -13 -17 -7 -69 10 -79 8
-6 9 -9 2 -9 -18 0 -28 -52 -12 -61 7 -5 8 -9 3 -9 -7 0 -11 -51 -13 -136 -2
-131 -1 -136 18 -131 11 3 23 1 26 -4 3 -5 -2 -9 -11 -9 -20 0 -41 -50 -24
-61 6 -4 9 -12 5 -18 -11 -16 -17 -81 -8 -81 4 0 8 -9 9 -20 1 -11 -2 -20 -6
-20 -4 0 -6 -19 -5 -42 1 -36 6 -44 25 -49 23 -7 22 -10 -3 -13 -18 -1 -23
-67 -6 -77 9 -7 10 -11 2 -16 -8 -5 -11 -38 -9 -93 3 -119 4 -122 15 -115 6 3
10 2 10 -3 0 -6 -7 -12 -15 -16 -21 -8 -19 -26 3 -26 14 0 15 -2 2 -10 -11 -7
-15 -30 -16 -90 0 -44 4 -80 9 -80 5 0 6 -8 2 -17 -9 -23 -14 -96 -8 -106 3
-5 16 7 29 27 30 44 34 120 7 130 -13 5 -14 9 -5 15 16 10 26 61 12 61 -5 0
-10 8 -10 18 0 14 2 14 9 3 6 -9 8 37 7 120 -4 153 -3 149 -16 129 -5 -8 -12
-11 -16 -7 -4 4 3 18 15 31 13 14 20 29 17 35 -4 5 -7 69 -8 141 -1 103 -4
133 -16 137 -11 5 -11 7 0 14 10 6 13 52 13 204 0 107 -2 195 -5 195 -3 0 -5
104 -5 230 0 127 -2 230 -5 230 -3 -1 -11 -7 -18 -15z m-2 -85 c0 -5 -5 -10
-11 -10 -5 0 -7 5 -4 10 3 6 8 10 11 10 2 0 4 -4 4 -10z m20 -1160 c0 -5 -2
-10 -4 -10 -3 0 -8 5 -11 10 -3 6 -1 10 4 10 6 0 11 -4 11 -10z"/>
<path d="M5710 7105 c-7 -8 -18 -15 -24 -15 -7 0 -11 -29 -12 -85 -2 -67 1
-85 12 -85 16 0 19 -17 4 -22 -16 -5 -19 -79 -3 -85 8 -3 10 -10 5 -17 -12
-14 -12 -206 -1 -206 5 0 9 -7 9 -15 0 -8 -4 -15 -10 -15 -5 0 -10 -9 -10 -20
0 -12 7 -20 17 -20 14 0 14 -2 -2 -20 -10 -11 -14 -20 -9 -20 5 0 9 -13 9 -29
0 -16 -3 -27 -7 -24 -5 2 -8 -3 -8 -11 0 -9 8 -16 17 -16 15 0 15 -1 -1 -13
-23 -17 -18 -63 7 -59 20 3 23 -13 3 -21 -14 -6 -27 -60 -17 -76 4 -5 16 -5
29 0 20 8 22 14 20 64 -1 30 -6 55 -11 55 -4 0 -5 6 0 13 4 6 8 81 9 165 1
151 1 152 -20 146 -20 -6 -20 -6 -4 12 14 16 17 41 16 146 0 122 -1 127 -19
117 -13 -6 -19 -6 -19 1 0 5 3 10 8 10 4 0 13 10 21 21 10 18 10 23 0 30 -10
6 -11 13 -2 31 10 19 16 78 8 78 -1 0 -8 -7 -15 -15z"/>
<path d="M5702 6208 c-17 -17 -15 -45 6 -57 16 -9 16 -10 0 -16 -21 -8 -24
-51 -5 -58 9 -3 9 -7 -2 -20 -10 -13 -12 -39 -7 -116 4 -64 3 -102 -4 -106 -5
-3 -10 -2 -10 4 0 6 -63 9 -172 7 -175 -2 -228 -12 -228 -43 0 -18 21 -16 49
3 18 13 25 14 31 4 11 -17 98 -24 116 -9 11 9 18 8 30 -2 13 -10 17 -10 26 2
7 11 11 11 15 1 2 -6 10 -9 16 -5 6 4 37 7 69 8 52 1 58 -1 58 -19 0 -30 15
-50 30 -41 8 5 11 3 9 -4 -3 -7 -9 -11 -14 -9 -11 3 -26 -72 -17 -87 3 -5 5
-49 3 -98 -3 -82 -1 -89 18 -94 12 -3 21 -9 21 -15 0 -5 -8 -4 -19 2 -18 9
-19 6 -19 -38 0 -26 5 -53 11 -59 6 -9 6 -13 -2 -13 -12 0 -10 -57 3 -78 4 -6
2 -20 -4 -31 -14 -26 -13 -31 6 -31 12 0 14 -3 6 -12 -5 -7 -12 -46 -14 -85
-3 -58 -1 -74 11 -78 10 -4 12 -8 4 -13 -15 -10 -16 -112 -1 -112 9 0 9 -3 0
-12 -13 -13 -17 -78 -4 -78 4 0 16 7 27 15 16 13 19 27 18 88 -1 39 -2 74 -3
77 -1 3 -2 67 -1 143 0 123 -2 137 -17 137 -15 1 -15 2 -2 13 17 13 27 67 12
67 -9 0 -10 58 -1 75 4 6 4 30 2 55 -2 25 -5 79 -6 122 -1 42 -5 74 -9 72 -3
-2 -9 0 -13 6 -3 6 1 13 10 16 10 4 16 17 15 33 -5 66 -1 81 23 81 191 0 247
2 247 12 0 7 5 6 15 -2 11 -9 18 -10 28 -1 8 6 17 8 21 4 4 -4 11 -1 16 7 8
13 10 13 10 -1 0 -15 18 -17 163 -15 89 0 168 5 176 10 8 5 16 4 21 -4 7 -11
25 -11 87 -3 48 6 80 6 84 0 4 -5 14 -5 26 2 11 5 23 7 27 4 3 -4 41 -5 84 -4
42 1 85 2 95 2 10 0 21 7 24 15 7 20 21 18 19 -3 -1 -15 8 -17 58 -16 36 1 62
7 67 15 7 11 9 10 9 -1 0 -13 29 -12 110 5 20 4 22 3 10 -5 -12 -9 -10 -11 11
-11 15 0 32 7 39 15 16 19 30 19 30 0 0 -13 24 -14 178 -10 97 3 197 7 222 9
25 1 48 -1 51 -6 3 -5 17 -5 32 1 18 7 28 7 33 0 4 -7 10 -6 19 1 10 8 20 8
36 -1 13 -6 24 -8 26 -3 2 5 46 8 98 7 79 -2 97 0 102 13 3 8 1 20 -5 26 -8 8
-14 5 -21 -13 -10 -24 -10 -24 -10 -1 -1 23 -15 30 -26 12 -5 -8 -11 -8 -19
-1 -13 11 -176 11 -176 0 0 -4 -7 -9 -14 -12 -10 -4 -13 -1 -9 9 3 8 -1 14
-11 14 -9 0 -16 -4 -16 -10 0 -5 -5 -10 -11 -10 -5 0 -8 4 -4 9 6 11 -141 8
-167 -4 -10 -4 -18 -3 -18 1 0 5 -25 9 -55 10 -30 0 -55 -4 -55 -8 0 -4 -7 -8
-16 -8 -8 0 -12 5 -9 10 8 12 -15 13 -34 1 -9 -6 -21 -5 -33 2 -16 10 -22 9
-32 -6 -11 -14 -15 -15 -19 -4 -4 11 -23 13 -77 11 -39 -2 -75 -6 -81 -9 -5
-4 -14 -3 -21 1 -24 15 -67 11 -87 -8 -17 -15 -21 -16 -21 -3 0 8 -9 15 -20
15 -11 0 -20 -6 -20 -12 0 -9 -2 -10 -8 -2 -5 8 -65 11 -194 11 -162 0 -188
-3 -191 -16 -4 -13 -5 -13 -6 2 -1 22 -49 23 -77 2 -24 -18 -38 -19 -31 -1 5
12 -5 14 -51 11 -31 -1 -58 -8 -60 -14 -5 -16 -32 -14 -32 2 0 17 -148 20
-168 4 -9 -7 -16 -7 -20 -1 -8 11 -108 12 -118 1 -11 -10 -52 -9 -56 2 -2 5
-19 4 -40 -4 -21 -7 -38 -9 -38 -5 0 4 -25 8 -57 9 -31 0 -58 3 -61 5 -2 3 -4
21 -5 40 -1 24 -6 36 -15 36 -12 0 -12 3 -2 15 10 12 10 15 0 15 -10 0 -9 4 2
18 9 10 13 32 11 57 -1 22 -3 73 -3 113 -1 73 -10 88 -38 60z m-52 -372 c0 -3
-4 -8 -10 -11 -5 -3 -10 -1 -10 4 0 6 5 11 10 11 6 0 10 -2 10 -4z m1430 -6
c0 -5 -2 -10 -4 -10 -3 0 -8 5 -11 10 -3 6 -1 10 4 10 6 0 11 -4 11 -10z
m-1630 -20 c0 -5 -2 -10 -4 -10 -3 0 -8 5 -11 10 -3 6 -1 10 4 10 6 0 11 -4
11 -10z m280 -504 c0 -3 -4 -8 -10 -11 -5 -3 -10 -1 -10 4 0 6 5 11 10 11 6 0
10 -2 10 -4z"/>
<path d="M3069 5962 c-17 -20 -22 -92 -7 -92 7 0 6 -5 -1 -14 -9 -11 -9 -15 1
-19 7 -3 -7 -6 -32 -7 -122 -5 -166 -8 -181 -14 -10 -4 -20 -3 -24 3 -10 16
-23 13 -28 -6 -4 -14 -5 -15 -6 -2 -1 12 -11 15 -48 13 -26 -2 -49 -8 -51 -13
-5 -16 -22 -13 -22 4 0 18 -11 19 -29 3 -11 -10 -14 -10 -18 0 -5 14 -43 17
-43 3 0 -5 -20 -8 -45 -7 -25 0 -45 4 -45 8 0 7 -49 3 -81 -7 -11 -4 -19 -2
-19 5 0 6 -4 9 -8 6 -5 -3 -82 -6 -173 -7 -90 -1 -170 -6 -176 -12 -7 -5 -21
-6 -30 -1 -10 4 -84 8 -165 10 -120 1 -148 -1 -148 -12 0 -8 -4 -14 -10 -14
-5 0 -7 7 -4 15 4 9 0 15 -10 15 -9 0 -16 -6 -16 -12 0 -7 -11 -18 -24 -24
-20 -9 -23 -9 -19 2 3 8 11 14 19 14 8 0 14 5 14 10 0 11 -30 13 -54 4 -9 -3
-16 -13 -16 -21 0 -8 -5 -11 -10 -8 -6 4 -8 11 -5 16 4 5 -12 9 -34 9 -26 0
-41 -5 -41 -12 -1 -9 -5 -8 -13 3 -10 13 -23 14 -72 9 -33 -4 -71 -4 -85 0
-14 3 -40 5 -57 4 -18 -1 -48 -2 -65 -3 -25 -1 -29 -4 -18 -11 12 -8 11 -10
-7 -10 -13 0 -23 4 -23 9 0 12 -132 14 -163 2 -15 -6 -29 -6 -32 -2 -2 5 -79
8 -169 7 -90 0 -162 -4 -160 -8 2 -4 0 -10 -6 -13 -21 -13 10 -36 31 -24 13 6
19 6 19 -1 0 -19 63 -11 87 12 13 12 26 18 30 13 5 -4 2 -10 -4 -12 -7 -3 -13
-9 -13 -14 0 -11 33 -12 44 -2 10 10 50 10 57 -1 4 -5 15 1 25 13 21 24 36 28
28 8 -4 -12 43 -20 116 -18 71 2 175 -1 181 -5 4 -2 10 0 13 4 3 5 28 7 56 4
36 -3 50 -1 50 8 0 9 3 10 13 1 10 -7 17 -7 24 0 8 8 17 7 32 -3 18 -11 23
-11 31 2 5 8 10 10 10 5 0 -14 73 -15 82 -1 6 8 8 8 8 0 0 -15 360 -15 360 0
0 7 3 7 8 -1 5 -8 19 -9 45 -4 20 5 37 5 37 1 0 -8 179 -5 187 4 3 2 11 2 19
-1 8 -3 14 -1 14 5 0 6 12 5 29 -4 16 -8 44 -12 62 -10 19 2 90 6 159 7 69 1
135 6 148 11 14 5 21 4 17 -2 -3 -6 54 -8 155 -7 88 1 160 5 160 9 0 5 9 8 21
8 11 0 17 -4 14 -10 -8 -13 25 -13 45 0 22 14 40 -8 40 -50 0 -21 5 -40 11
-42 9 -3 9 -9 1 -24 -7 -13 -10 -64 -8 -130 3 -100 5 -109 22 -106 17 2 17 1
-3 -15 -16 -13 -20 -26 -17 -48 2 -16 5 -110 6 -208 1 -98 5 -180 9 -183 4 -2
4 -17 0 -32 -5 -22 -6 -213 0 -232 0 -3 1 -40 1 -82 0 -43 3 -78 7 -78 32 2
57 73 29 83 -10 3 -10 8 1 21 12 14 12 19 2 26 -8 5 -9 10 -3 14 13 8 11 219
-2 228 -6 4 -6 11 2 20 9 12 10 23 3 57 -1 2 -8 -2 -16 -9 -10 -9 -15 -9 -15
-1 0 10 13 15 33 12 10 -2 9 47 -2 53 -9 6 -7 74 3 83 3 3 1 15 -5 25 -8 14
-8 23 0 31 14 14 14 30 0 22 -7 -5 -8 5 -3 30 5 27 4 36 -5 31 -6 -4 -11 -2
-11 3 0 6 3 11 8 11 4 0 7 64 8 143 0 78 -2 134 -4 125 -5 -27 -22 -21 -22 7
0 16 6 25 15 25 8 0 15 9 15 21 0 11 -4 17 -10 14 -6 -4 -6 4 0 21 7 18 7 29
1 33 -6 4 -6 12 -1 21 5 8 7 24 4 35 -3 11 2 34 10 50 11 20 16 24 16 13 0
-12 8 -18 25 -18 14 0 25 5 25 11 0 8 4 9 13 0 8 -6 17 -8 20 -4 4 3 12 2 19
-3 7 -6 65 -9 128 -8 170 3 172 3 165 13 -3 5 -1 12 5 16 6 3 13 0 16 -8 7
-20 279 -21 299 0 18 17 29 17 21 -2 -7 -18 15 -20 32 -3 9 9 12 9 12 0 0 -7
7 -12 16 -12 8 0 13 4 10 9 -6 9 35 24 43 16 2 -3 -1 -5 -7 -5 -7 0 -12 -4
-12 -8 0 -4 20 -9 45 -10 25 -1 45 2 45 6 0 4 18 7 40 7 22 0 40 -3 40 -6 0
-10 109 -8 116 2 2 5 18 6 33 3 16 -4 32 -1 35 5 10 15 27 14 23 -1 -2 -13 4
-13 75 -4 15 1 25 -1 22 -6 -3 -4 14 -6 38 -4 26 2 42 7 41 14 -2 7 4 12 13
12 8 0 13 -4 9 -9 -12 -21 19 -22 46 -2 33 25 43 27 35 6 -6 -17 25 -21 53 -5
12 6 31 6 55 -1 32 -9 40 -8 52 8 12 16 13 16 14 1 0 -14 10 -17 50 -16 31 0
50 4 50 11 0 9 2 9 8 1 9 -14 291 -15 310 -1 8 6 12 6 12 -2 0 -20 35 -11 45
12 6 12 16 21 23 19 7 -1 12 2 12 7 0 6 -23 10 -51 9 -36 0 -56 -5 -70 -19
-19 -19 -19 -19 -19 1 0 22 -30 25 -127 11 -29 -4 -53 -4 -53 1 0 5 -9 4 -19
-2 -24 -12 -44 -13 -37 -2 3 5 -16 5 -42 1 -26 -4 -51 -4 -56 -2 -19 12 -391
1 -420 -12 -14 -6 -17 -5 -12 3 11 18 -96 11 -112 -8 -10 -13 -11 -12 -6 3 6
16 2 18 -27 15 -19 -2 -34 -8 -34 -15 0 -6 -4 -15 -9 -20 -5 -5 -7 1 -3 15 4
18 1 22 -19 22 -14 0 -36 -7 -50 -16 -19 -13 -24 -14 -22 -3 2 10 -24 13 -132
15 -118 1 -138 -1 -162 -17 -33 -24 -37 -24 -31 0 5 19 0 20 -88 16 -51 -2
-97 -9 -103 -15 -13 -13 -29 -13 -21 0 9 14 -78 13 -93 -2 -8 -8 -12 -8 -12
-1 0 18 -219 10 -231 -8 -7 -11 -9 -11 -9 4 0 14 -10 17 -64 17 -63 0 -64 0
-70 31 -3 17 -1 39 4 50 6 10 7 19 2 19 -5 0 -7 11 -4 25 5 29 -7 32 -29 7z
m948 -148 c-3 -3 -12 -4 -19 -1 -8 3 -5 6 6 6 11 1 17 -2 13 -5z m-597 -14 c0
-5 -5 -10 -11 -10 -5 0 -7 5 -4 10 3 6 8 10 11 10 2 0 4 -4 4 -10z m-1130 -10
c0 -5 -5 -10 -11 -10 -5 0 -7 5 -4 10 3 6 8 10 11 10 2 0 4 -4 4 -10z m790
-50 c0 -5 -2 -10 -4 -10 -3 0 -8 5 -11 10 -3 6 -1 10 4 10 6 0 11 -4 11 -10z
m20 -880 c0 -5 -4 -10 -10 -10 -5 0 -10 5 -10 10 0 6 5 10 10 10 6 0 10 -4 10
-10z"/>
<path d="M8135 5863 c-13 -12 -19 -13 -25 -4 -12 20 -45 8 -48 -17 -3 -20 0
-22 51 -22 35 0 57 5 60 13 4 9 8 9 15 -2 15 -21 151 -16 168 7 10 14 10 19
-4 26 -24 14 -54 15 -76 4 -13 -7 -21 -7 -25 1 -5 8 -16 8 -41 -1 -26 -8 -35
-9 -38 0 -5 17 -18 15 -37 -5z m195 -7 c0 -3 -4 -8 -10 -11 -5 -3 -10 -1 -10
4 0 6 5 11 10 11 6 0 10 -2 10 -4z"/>
<path d="M5730 4790 c-22 -22 -27 -50 -7 -50 8 0 9 -3 1 -8 -6 -4 -11 -21 -12
-39 -1 -28 2 -31 24 -29 30 3 44 16 18 16 -16 1 -17 2 -4 13 17 13 25 117 9
117 -5 0 -18 -9 -29 -20z"/>
<path d="M5723 4635 c-16 -17 -17 -61 -3 -70 8 -5 8 -11 0 -20 -8 -9 -8 -15 0
-20 7 -4 7 -12 0 -26 -6 -11 -8 -25 -4 -31 4 -7 7 -74 6 -149 -1 -137 -1 -137
21 -132 21 5 21 5 3 -9 -21 -17 -32 -104 -15 -124 6 -7 7 -18 3 -25 -4 -6 -9
-46 -11 -89 l-3 -77 30 5 c21 3 30 10 30 23 0 12 -5 16 -15 13 -20 -8 -19 5 3
29 12 14 13 21 5 24 -9 3 -10 9 -1 23 9 14 9 25 0 45 -7 16 -9 32 -4 39 13 17
14 76 1 76 -8 0 -8 4 -1 13 15 19 8 62 -12 65 -16 4 -16 5 -1 16 9 7 17 23 16
37 0 13 -1 43 -1 65 -1 37 -3 41 -22 36 -14 -3 -19 -1 -14 6 4 7 14 12 22 12
9 0 14 11 14 35 0 27 -3 33 -15 29 -11 -5 -13 -2 -9 10 3 9 10 16 15 16 14 0
11 38 -3 43 -10 4 -10 6 0 6 8 1 12 20 12 61 0 51 -3 60 -17 60 -10 -1 -24 -7
-30 -15z m27 -35 c0 -5 -5 -10 -11 -10 -5 0 -7 5 -4 10 3 6 8 10 11 10 2 0 4
-4 4 -10z m20 -594 c0 -3 -4 -8 -10 -11 -5 -3 -10 -1 -10 4 0 6 5 11 10 11 6
0 10 -2 10 -4z"/>
<path d="M3082 4538 c-17 -17 -15 -28 6 -22 16 5 16 5 0 -9 -23 -19 -26 -158
-4 -176 11 -10 17 -8 25 6 10 17 10 17 11 1 0 -17 -10 -22 -36 -19 -7 1 -11
-22 -10 -64 0 -36 4 -65 9 -65 5 0 5 -5 -1 -12 -11 -14 -10 -207 1 -225 4 -6
3 -14 -3 -18 -18 -11 -11 -27 9 -20 16 5 18 2 14 -15 -3 -11 -9 -20 -13 -20
-4 0 -8 -54 -8 -120 -1 -79 3 -120 10 -120 7 0 7 -4 -1 -13 -8 -10 -7 -17 2
-27 9 -10 9 -11 -1 -6 -9 6 -12 -4 -10 -38 0 -25 6 -46 12 -46 6 0 4 -5 -4
-10 -12 -8 -13 -11 -1 -19 9 -6 10 -11 2 -15 -14 -9 -14 -26 -1 -26 28 0 47
38 46 91 0 30 -4 57 -10 60 -5 4 -4 20 3 39 8 23 8 37 1 46 -8 8 -8 14 0 19
17 11 11 37 -10 42 -11 3 -20 10 -20 15 0 5 5 6 10 3 6 -3 11 -1 11 4 3 26 4
30 11 36 3 4 3 19 -2 33 -4 15 -5 42 -2 61 3 22 0 36 -9 42 -8 5 -9 9 -3 9 15
0 16 47 2 83 -8 21 -8 34 2 52 7 12 10 29 7 37 -4 9 -6 7 -6 -4 -1 -21 -21
-25 -21 -5 0 7 7 22 15 33 16 21 20 51 6 56 -5 2 -5 28 -1 58 6 45 6 158 1
278 -1 24 -20 29 -39 10z m28 -88 c0 -5 -4 -10 -10 -10 -5 0 -10 5 -10 10 0 6
5 10 10 10 6 0 10 -4 10 -10z m-14 -67 c-10 -10 -19 5 -10 18 6 11 8 11 12 0
2 -7 1 -15 -2 -18z"/>
<path d="M5744 3853 c3 -4 -1 -14 -10 -24 -11 -12 -13 -23 -7 -36 5 -10 8 -64
7 -120 -2 -82 1 -103 12 -103 17 0 18 -17 2 -22 -9 -3 -13 -28 -13 -76 0 -66
-2 -72 -21 -72 -12 0 -31 -9 -44 -20 -13 -11 -28 -20 -33 -20 -6 0 -2 6 9 14
25 19 14 29 -19 17 -17 -7 -28 -7 -32 0 -4 5 -11 6 -17 3 -17 -11 -103 -11
-110 0 -4 6 -15 3 -28 -9 -16 -14 -21 -15 -18 -5 2 11 -6 15 -30 15 -19 1 -35
-2 -38 -6 -2 -3 -31 -4 -65 -2 -45 3 -64 1 -70 -9 -7 -10 -9 -8 -10 7 l0 20
-9 -20 c-7 -19 -8 -19 -15 -2 -5 12 -11 14 -19 8 -6 -5 -29 -12 -51 -16 -31
-5 -37 -4 -25 5 12 9 -4 10 -65 5 -44 -4 -89 -6 -100 -5 -55 5 -120 0 -123 -9
-2 -6 -11 -11 -20 -10 -11 0 -12 2 -4 6 6 2 12 9 12 14 0 14 -124 11 -138 -3
-9 -9 -15 -10 -20 -2 -5 8 -60 11 -169 10 -138 -1 -163 -3 -163 -16 -1 -12 -3
-12 -11 2 -7 12 -19 16 -42 13 -17 -3 -113 -5 -211 -6 -149 -1 -184 -4 -205
-17 -24 -16 -25 -16 -18 1 8 20 -13 23 -31 5 -10 -10 -15 -10 -22 1 -7 12 -11
12 -24 2 -9 -8 -16 -9 -16 -3 0 16 -309 12 -325 -5 -18 -18 -36 -17 -29 2 9
22 -95 16 -120 -7 -11 -10 -23 -18 -28 -18 -14 0 -8 19 10 29 13 8 3 10 -38 8
l-55 -2 3 32 c3 33 -12 53 -22 28 -3 -8 -12 -12 -21 -9 -8 3 -15 1 -15 -5 0
-6 5 -11 10 -11 7 0 7 -7 0 -21 -7 -13 -19 -19 -33 -17 -13 2 -29 -5 -39 -17
-9 -11 -20 -16 -24 -12 -5 4 -2 12 6 17 8 5 11 12 8 15 -9 9 -68 -5 -68 -16 0
-5 -5 -9 -11 -9 -5 0 -7 5 -4 10 3 6 1 10 -4 10 -6 0 -11 -5 -11 -11 0 -5 -5
-7 -12 -3 -19 12 -151 12 -171 0 -14 -9 -20 -8 -27 4 -6 9 -10 10 -10 3 0 -8
-9 -9 -27 -4 -39 11 -192 11 -199 0 -3 -5 -14 -9 -25 -9 -11 0 -18 4 -15 8 3
5 -22 8 -55 8 -40 -1 -59 -5 -59 -13 0 -7 -7 -13 -15 -13 -9 0 -12 6 -9 15 7
17 -13 20 -49 6 -14 -6 -28 -7 -31 -3 -9 8 -107 2 -127 -9 -12 -6 -19 -5 -22
4 -2 8 -23 11 -68 9 -51 -3 -68 -7 -82 -25 l-19 -22 5 21 c4 20 0 22 -45 21
-36 -1 -47 -4 -44 -14 3 -7 -2 -13 -10 -13 -11 0 -14 6 -10 15 5 14 -20 16
-225 13 -190 -3 -232 -6 -239 -18 -8 -13 -11 -12 -22 3 -11 14 -19 16 -38 9
-14 -5 -34 -6 -45 -1 -31 12 -33 11 -38 -18 l-4 -28 -2 26 c-1 23 -5 27 -28
25 -16 0 -33 -8 -40 -16 -11 -13 -12 -13 -13 1 0 14 -12 17 -77 15 -51 -1 -78
-5 -81 -14 -2 -7 2 -10 12 -6 8 3 23 1 33 -5 16 -9 14 -10 -10 -11 -16 0 -26
-4 -23 -8 7 -12 83 -14 91 -2 3 5 11 10 16 10 6 0 7 -4 4 -10 -10 -16 48 -12
73 6 20 14 22 14 22 0 0 -13 12 -16 55 -16 32 0 55 4 55 11 0 5 5 7 11 3 18
-11 249 -12 249 -1 0 5 8 6 18 2 26 -10 73 -15 68 -7 -2 4 83 7 189 5 177 -3
194 -1 198 15 4 15 5 15 6 -1 1 -17 9 -19 94 -14 50 2 103 8 116 12 17 6 22 5
17 -3 -10 -16 46 -16 62 0 7 7 12 8 12 2 0 -14 137 -17 145 -3 6 8 9 8 15 -1
6 -9 12 -9 30 0 16 9 25 9 33 1 19 -19 65 -13 72 9 3 11 11 20 16 20 6 0 7 -5
3 -11 -3 -6 -1 -15 5 -18 19 -12 132 -1 160 16 21 12 22 12 9 0 -10 -8 -18
-17 -18 -21 0 -9 38 -7 44 3 7 11 260 2 264 -10 2 -5 10 -9 18 -9 8 0 14 -4
14 -10 0 -5 -4 -10 -8 -10 -4 0 -9 -31 -9 -70 -1 -41 2 -70 8 -70 6 0 7 -5 2
-12 -4 -7 -8 -73 -9 -145 0 -109 2 -130 13 -121 10 8 13 7 13 -6 0 -9 -6 -16
-14 -16 -12 0 -14 -22 -11 -125 2 -69 7 -130 10 -135 3 -6 3 -15 -1 -21 -3 -6
0 -15 7 -20 11 -7 11 -9 1 -9 -10 0 -12 -29 -11 -125 2 -106 5 -125 17 -120
12 5 13 3 2 -10 -16 -19 -25 -149 -10 -140 12 8 13 -5 0 -25 -6 -9 -5 -19 2
-28 7 -8 8 -16 2 -20 -12 -9 -13 -102 0 -102 6 0 5 -5 -2 -12 -17 -17 -15 -28
4 -28 13 0 14 -3 4 -15 -16 -19 -16 -85 0 -95 9 -6 9 -9 1 -15 -14 -8 -11
-216 3 -226 5 -4 5 -13 1 -20 -5 -7 -10 -37 -11 -67 -3 -44 -1 -53 11 -48 9 3
15 0 15 -8 0 -8 -6 -16 -13 -19 -10 -4 -13 -22 -12 -59 3 -67 3 -68 16 -68 5
0 7 5 3 12 -4 7 -3 8 4 4 17 -10 15 -26 -3 -26 -8 0 -15 -4 -15 -10 0 -5 4
-10 9 -10 6 0 7 -24 4 -55 -5 -43 -3 -55 8 -55 32 1 39 15 33 70 -2 30 -6 136
-8 236 -1 99 -6 186 -9 192 -6 8 -3 83 4 102 1 3 1 9 0 14 -1 5 -2 50 -3 100
0 52 -5 94 -11 98 -8 4 -7 10 0 20 16 18 17 238 2 238 -6 0 -9 -7 -5 -15 3 -8
2 -15 -3 -15 -12 0 -20 37 -11 47 5 4 13 26 19 48 8 30 8 41 -2 47 -9 6 -8 10
3 18 13 8 13 11 1 19 -7 5 -11 13 -8 18 6 9 7 120 4 306 0 32 -4 47 -14 47
-11 0 -11 4 2 23 10 16 14 44 12 90 -1 55 -5 67 -21 71 -18 5 -18 6 3 32 25
32 27 50 5 58 -16 6 -16 8 0 24 22 26 21 46 -4 39 -11 -3 -20 -1 -20 4 0 5 6
9 13 9 10 0 13 27 13 115 0 63 3 117 7 121 4 4 40 8 80 8 52 1 71 4 69 14 -1
6 2 12 8 12 5 0 10 -7 10 -15 0 -11 17 -13 95 -11 57 2 100 8 110 16 14 11 19
7 16 -12 -2 -17 18 -7 24 12 3 11 10 20 15 20 5 0 7 -7 4 -15 -6 -15 -2 -16
51 -19 11 -1 26 3 33 8 9 6 16 6 20 -1 5 -7 54 -9 147 -6 77 2 245 4 373 5
169 0 232 3 232 11 0 9 2 9 8 0 10 -16 54 -12 69 7 11 13 12 13 13 -1 0 -13
10 -16 53 -14 28 1 57 3 62 5 6 1 15 1 20 0 6 -2 54 -4 107 -4 74 -1 99 2 103
13 4 9 9 10 18 4 6 -5 32 -11 56 -12 25 -1 48 -4 52 -7 4 -2 14 3 22 11 17 17
37 20 37 6 0 -17 30 -20 69 -6 22 7 42 11 46 7 12 -12 148 -12 164 1 8 7 12 7
9 1 -5 -7 53 -10 188 -10 107 0 194 4 194 8 0 4 5 8 11 8 7 0 10 -17 7 -45 -2
-25 -1 -45 2 -45 3 0 3 -39 1 -86 -3 -84 -3 -87 18 -81 12 3 21 2 21 -3 0 -4
-9 -10 -20 -13 -19 -5 -20 -12 -18 -127 2 -111 4 -121 20 -117 24 7 23 -10 0
-17 -16 -6 -18 -20 -17 -161 0 -124 3 -155 14 -155 9 0 10 -4 4 -12 -11 -15
-11 -127 0 -145 4 -6 1 -13 -5 -16 -10 -3 -10 -8 -2 -16 8 -9 8 -27 1 -63 -7
-37 -7 -56 1 -69 14 -21 16 -56 4 -63 -4 -2 -6 -22 -4 -43 1 -21 3 -87 3 -148
0 -60 3 -104 6 -97 2 6 9 12 14 12 5 0 2 -18 -7 -39 -12 -29 -15 -63 -12 -130
3 -50 7 -93 10 -97 7 -7 -2 -74 -11 -89 -4 -5 -6 -35 -5 -65 1 -30 3 -85 3
-123 1 -37 5 -67 10 -67 4 0 6 -14 3 -30 -4 -27 -2 -30 22 -30 26 0 26 2 25
55 -1 31 -6 58 -12 62 -5 3 -6 25 -2 51 5 32 3 47 -7 53 -11 7 -11 12 1 31 19
31 23 88 8 117 -9 19 -9 25 1 28 15 6 17 93 1 93 -8 0 -8 4 -1 13 5 6 9 23 8
37 -1 18 -7 26 -25 28 l-24 4 24 12 c23 11 24 15 20 106 -2 52 -4 109 -5 125
0 17 -6 30 -13 30 -22 0 -24 14 -3 25 16 8 18 15 11 24 -7 9 -7 16 1 24 8 8 8
15 0 25 -7 8 -9 17 -5 20 3 4 1 13 -6 21 -8 10 -9 15 -1 18 14 4 20 57 9 85
-5 13 -4 25 1 28 6 4 10 24 10 46 0 29 -4 39 -16 39 -14 0 -14 3 -4 15 13 15
18 90 8 101 -4 3 -4 12 -1 20 3 9 -2 14 -13 14 -15 0 -16 2 -5 9 17 11 27 221
10 221 -5 0 -7 5 -3 11 13 21 15 132 3 140 -6 4 -8 12 -4 18 8 15 5 307 -4
336 -6 18 11 75 23 76 6 1 55 3 110 5 54 2 105 9 112 15 11 9 14 8 14 -3 0
-12 16 -14 82 -13 66 2 84 6 96 21 11 14 13 15 9 3 -4 -14 3 -17 46 -18 29 0
65 4 80 11 23 9 31 8 37 -2 7 -11 14 -12 37 -1 17 8 29 9 31 3 3 -10 52 29 52
41 0 4 -26 4 -57 2 -76 -6 -240 -5 -258 1 -8 3 -21 -6 -30 -20 -10 -14 -21
-23 -27 -20 -5 3 -4 12 4 22 12 14 9 15 -22 9 -18 -4 -37 -12 -41 -18 -4 -7
-8 -5 -12 5 -7 18 -52 22 -62 6 -7 -12 -55 -13 -55 -2 0 5 -20 9 -45 8 -37 0
-45 -3 -45 -18 0 -11 -4 -17 -10 -13 -5 3 -7 12 -3 20 6 18 -27 21 -45 3 -9
-9 -12 -4 -12 24 0 20 -6 39 -12 41 -10 4 -10 8 1 15 11 8 12 25 7 74 -7 67
-10 136 -6 153 1 6 2 32 1 58 -1 45 -3 48 -23 42 l-23 -6 23 17 c28 21 28 40
1 47 -12 3 -18 3 -15 0z m-1854 -493 c0 -5 -5 -10 -11 -10 -5 0 -7 5 -4 10 3
6 8 10 11 10 2 0 4 -4 4 -10z m100 6 c0 -3 -4 -8 -10 -11 -5 -3 -10 -1 -10 4
0 6 5 11 10 11 6 0 10 -2 10 -4z m-2590 -36 c-20 -13 -33 -13 -25 0 3 6 14 10
23 10 15 0 15 -2 2 -10z m4370 -360 c0 -5 -5 -10 -11 -10 -5 0 -7 5 -4 10 3 6
8 10 11 10 2 0 4 -4 4 -10z m-2630 -510 c0 -5 -2 -10 -4 -10 -3 0 -8 5 -11 10
-3 6 -1 10 4 10 6 0 11 -4 11 -10z"/>
<path d="M7487 3414 c-3 -4 -45 -6 -92 -5 -61 0 -85 -3 -85 -12 0 -8 -4 -7
-10 3 -8 13 -12 13 -32 1 -16 -10 -23 -10 -26 -2 -5 14 -62 14 -98 1 -15 -6
-30 -7 -33 -2 -9 14 -238 9 -253 -6 -6 -6 -18 -12 -26 -12 -11 0 -12 3 -3 14
10 12 -1 14 -76 13 -63 -2 -87 -6 -86 -15 2 -6 -2 -12 -8 -12 -6 0 -9 7 -5 15
8 21 -14 19 -30 -2 -8 -11 -13 -13 -14 -5 0 23 -78 14 -108 -13 l-27 -25 33 0
c19 0 40 7 49 15 8 9 18 13 21 10 4 -3 0 -10 -8 -15 -9 -6 59 -9 180 -8 117 1
202 6 213 12 13 8 20 7 27 -4 9 -13 13 -12 26 5 14 19 16 19 28 3 16 -22 56
-24 56 -3 0 14 3 13 25 -1 17 -11 29 -13 38 -7 18 15 70 26 62 13 -4 -6 6 -10
24 -10 16 0 33 5 37 11 5 8 8 8 14 0 5 -9 14 -9 34 -1 36 13 47 13 44 -2 -2
-7 4 -11 12 -9 8 2 74 4 145 5 72 0 136 5 143 9 18 12 15 39 -5 35 -10 -1 -24
1 -31 5 -8 6 -15 0 -21 -15 l-10 -23 0 23 c-1 23 -31 32 -31 9 0 -9 -11 -12
-35 -9 -19 2 -35 8 -35 13 0 10 -14 12 -23 3z"/>
<path d="M7538 3413 c7 -3 16 -2 19 1 4 3 -2 6 -13 5 -11 0 -14 -3 -6 -6z"/>
<path d="M7710 3406 c-5 -5 -10 -15 -10 -22 0 -7 -6 -15 -12 -17 -7 -3 2 -6
20 -6 18 -1 31 2 29 7 -6 9 112 7 136 -3 9 -4 25 -4 35 0 26 11 50 13 93 5 23
-4 42 -3 49 4 8 8 13 8 18 0 9 -15 102 -13 102 2 0 7 8 15 18 19 15 6 14 8 -6
16 -30 11 -143 9 -159 -4 -9 -6 -13 -6 -13 2 0 12 -181 9 -212 -4 -10 -4 -18
-3 -18 2 0 13 -57 12 -70 -1z"/>
<path d="M3148 1123 c7 -3 16 -2 19 1 4 3 -2 6 -13 5 -11 0 -14 -3 -6 -6z"/>
</g>
</svg>
