<?xml version="1.0" standalone="no"?>
<!DOCTYPE svg PUBLIC "-//W3C//DTD SVG 20010904//EN"
 "http://www.w3.org/TR/2001/REC-SVG-20010904/DTD/svg10.dtd">
<svg version="1.0" xmlns="http://www.w3.org/2000/svg"
 width="270.000000pt" height="270.000000pt" viewBox="0 0 270.000000 270.000000"
 preserveAspectRatio="xMidYMid meet">

<g transform="translate(0.000000,270.000000) scale(0.100000,-0.100000)"
fill="#000000" stroke="none">
<path d="M1344 2359 c-16 -10 -38 -19 -50 -19 -11 0 -24 -3 -28 -7 -4 -5 -27
-9 -50 -9 -40 -1 -118 -25 -191 -59 -16 -7 -55 -24 -85 -38 -57 -26 -150 -101
-150 -122 0 -6 -17 -25 -38 -42 -21 -17 -38 -40 -39 -52 -2 -23 -22 -55 -30
-47 -3 2 1 15 8 28 12 23 12 23 -9 4 -12 -10 -19 -23 -16 -27 3 -5 1 -9 -4 -9
-12 0 -72 -85 -72 -103 0 -8 -6 -17 -14 -20 -15 -6 -66 -100 -66 -122 0 -7 -3
-15 -7 -17 -5 -1 -20 -26 -35 -54 -21 -39 -25 -53 -16 -62 9 -9 8 -12 -5 -12
-11 0 -20 -11 -23 -30 -4 -16 -10 -30 -15 -30 -13 0 -50 -111 -60 -180 -17
-115 -9 -313 15 -361 9 -18 16 -42 16 -54 0 -11 5 -26 12 -33 6 -6 13 -18 14
-26 1 -8 7 -31 14 -51 9 -29 16 -36 31 -32 21 6 26 -8 7 -19 -7 -5 -5 -11 7
-21 11 -7 15 -13 11 -13 -4 0 7 -20 25 -45 30 -42 59 -59 59 -35 0 6 5 10 10
10 7 0 7 -8 -1 -22 -10 -18 -8 -24 7 -35 10 -7 26 -13 36 -13 19 0 25 -16 7
-22 -16 -5 129 -85 181 -99 25 -6 61 -11 80 -10 26 1 31 -1 20 -9 -12 -8 -10
-10 10 -10 15 0 31 5 38 12 9 9 12 8 12 -5 0 -17 28 -28 77 -30 16 -1 34 -8
42 -15 11 -11 17 -10 37 3 13 8 27 15 31 15 4 0 1 -5 -7 -10 -28 -17 4 -30 83
-32 42 -2 77 -7 77 -11 0 -5 20 -7 45 -4 25 2 47 1 51 -2 12 -12 259 -8 286 4
15 7 27 10 27 7 -3 -20 4 -20 36 -2 19 10 37 15 40 10 7 -12 86 24 97 44 5 9
14 16 19 16 6 0 7 -4 4 -10 -24 -39 89 34 164 105 35 34 38 44 14 46 -10 1 -5
4 11 8 16 3 34 15 40 26 6 11 22 36 36 55 13 19 24 44 25 57 0 13 4 23 9 22 8
0 34 49 40 76 1 6 10 25 19 43 18 33 9 44 -13 17 -7 -8 -18 -15 -24 -15 -6 0
-26 -30 -44 -68 -17 -37 -41 -82 -52 -99 -11 -18 -17 -41 -14 -50 4 -13 3 -14
-3 -5 -7 9 -16 4 -33 -20 -14 -18 -23 -38 -22 -45 1 -6 -2 -14 -8 -18 -5 -3
-10 -1 -10 5 0 6 -17 -6 -37 -26 -38 -37 -210 -127 -248 -130 -11 -1 -42 -4
-69 -7 -74 -9 -233 -9 -303 -1 -49 5 -63 4 -63 -6 0 -10 -3 -10 -12 2 -13 15
-96 30 -180 31 -21 1 -38 4 -38 9 0 4 -17 10 -37 13 -21 4 -47 10 -58 15 -21
9 -32 11 -95 13 -24 1 -40 7 -40 15 0 6 -11 12 -25 12 -14 0 -48 11 -77 25
-28 14 -60 25 -70 25 -11 0 -15 5 -12 15 4 8 1 15 -6 15 -6 0 -20 10 -31 23
-10 12 -18 16 -19 10 0 -7 -5 -13 -11 -13 -5 0 -9 8 -7 18 2 11 -3 26 -11 35
-15 19 -41 23 -41 7 0 -5 -4 -10 -10 -10 -6 0 -6 9 0 24 8 21 -5 54 -29 76
-10 9 -31 45 -38 63 -3 11 -12 16 -20 13 -10 -4 -13 -1 -8 12 3 11 -2 35 -10
55 -20 49 -45 168 -45 217 0 22 -5 40 -12 43 -10 3 -10 7 -2 18 7 8 12 36 13
63 0 26 3 57 6 67 5 14 1 19 -11 19 -17 0 -17 1 -1 13 21 15 28 57 13 76 -9
12 -8 14 5 9 12 -5 20 6 35 45 10 29 17 58 16 65 -2 6 2 12 7 12 16 0 71 115
71 147 0 18 3 23 8 15 6 -8 15 0 31 28 12 22 19 44 16 50 -3 6 1 13 9 16 9 3
16 16 16 28 0 27 14 48 29 44 6 -2 19 10 29 25 9 16 34 47 54 69 21 22 35 45
31 51 -3 6 -2 7 4 4 5 -4 24 9 40 28 18 20 26 36 19 38 -8 3 -8 8 0 17 7 7 14
8 18 2 8 -13 96 70 96 91 0 9 7 17 16 17 10 0 14 -6 11 -14 -4 -11 9 -8 46 9
29 14 53 31 55 40 4 17 19 20 24 4 2 -7 11 -7 28 0 14 5 18 10 10 10 -11 1
-11 4 -2 13 10 10 14 10 21 0 6 -10 17 -10 54 0 26 7 47 15 47 18 0 3 21 3 46
1 36 -2 49 1 56 14 8 13 18 15 48 10 21 -4 55 -2 77 4 32 9 35 8 20 -3 -16
-12 -16 -14 -1 -20 8 -3 26 -6 39 -6 13 0 27 -5 31 -11 3 -6 17 -9 30 -6 13 2
21 1 19 -4 -3 -4 19 -15 47 -24 72 -23 108 -39 108 -47 0 -3 13 -9 29 -13 16
-3 35 -13 42 -21 6 -8 20 -14 30 -14 11 0 19 -7 19 -15 0 -8 5 -15 10 -15 6 0
19 -9 31 -21 14 -14 28 -19 45 -15 24 6 34 -9 12 -17 -9 -3 -3 -15 16 -35 15
-17 35 -28 42 -25 10 3 14 -3 14 -19 0 -15 19 -44 52 -78 29 -30 53 -57 53
-60 4 -22 18 -50 24 -50 5 0 14 7 21 15 10 12 10 21 1 41 -6 14 -16 22 -21 19
-6 -3 -10 2 -10 12 0 26 -152 213 -173 213 -5 0 -18 11 -29 26 -11 14 -22 23
-25 21 -2 -3 -15 6 -27 18 -38 38 -145 87 -174 80 -19 -5 -23 -3 -19 9 6 14
-9 23 -85 46 -21 6 -42 9 -48 5 -5 -3 -10 -2 -10 4 0 12 -98 41 -116 34 -8 -3
-14 0 -14 6 0 14 -37 15 -45 1 -10 -16 -28 -12 -22 5 10 23 -7 25 -39 4z
m-154 -69 c0 -5 -4 -10 -10 -10 -5 0 -10 5 -10 10 0 6 5 10 10 10 6 0 10 -4
10 -10z m490 -30 c0 -5 -7 -10 -15 -10 -8 0 -15 5 -15 10 0 6 7 10 15 10 8 0
15 -4 15 -10z m225 -100 c3 -5 1 -10 -4 -10 -6 0 -11 5 -11 10 0 6 2 10 4 10
3 0 8 -4 11 -10z m-1255 -260 c0 -5 -4 -10 -10 -10 -5 0 -10 5 -10 10 0 6 5
10 10 10 6 0 10 -4 10 -10z m-80 -120 c0 -5 -2 -10 -4 -10 -3 0 -8 5 -11 10
-3 6 -1 10 4 10 6 0 11 -4 11 -10z m-198 -525 c-5 -31 -22 -44 -22 -18 0 15
17 43 26 43 1 0 -1 -11 -4 -25z m14 -252 c-10 -10 -19 5 -10 18 6 11 8 11 12
0 2 -7 1 -15 -2 -18z m391 -519 c-3 -3 -12 -4 -19 -1 -8 3 -5 6 6 6 11 1 17
-2 13 -5z m1156 -39 c-3 -9 -8 -14 -10 -11 -3 3 -2 9 2 15 9 16 15 13 8 -4z
m-313 -79 c0 -11 -19 -15 -25 -6 -3 5 1 10 9 10 9 0 16 -2 16 -4z"/>
<path d="M2201 1801 c-9 -6 -12 -18 -7 -36 7 -27 7 -27 29 -9 l21 19 -17 -27
c-16 -25 -16 -30 -1 -68 18 -44 41 -52 49 -17 6 23 -36 139 -51 144 -5 1 -15
-1 -23 -6z"/>
<path d="M2250 1614 c0 -8 3 -14 8 -14 4 0 8 -10 9 -22 1 -13 5 -54 9 -93 4
-38 12 -73 18 -77 8 -6 8 -10 0 -15 -10 -7 -19 -170 -16 -273 1 -23 -21 -119
-34 -155 -3 -8 -1 -15 4 -15 12 0 27 38 24 58 -2 6 7 12 19 12 16 0 20 5 16
20 -3 11 -1 23 4 26 6 3 7 14 4 24 -3 10 -2 21 2 23 5 3 10 36 11 73 2 38 6
72 9 77 3 5 1 12 -6 16 -7 5 -8 17 -1 42 6 18 6 35 2 37 -5 1 -7 34 -6 73 2
54 -1 71 -12 76 -11 4 -12 9 -4 18 8 9 8 26 0 57 -9 35 -15 43 -36 44 -14 1
-24 -4 -24 -12z m65 -184 c3 -5 -1 -10 -10 -10 -9 0 -13 5 -10 10 3 6 8 10 10
10 2 0 7 -4 10 -10z"/>
<path d="M2291 999 c0 -9 -12 -28 -26 -43 -50 -54 -62 -101 -16 -64 35 28 54
67 48 100 -2 12 -5 16 -6 7z"/>
</g>
</svg>
