<?xml version="1.0" standalone="no"?>
<!DOCTYPE svg PUBLIC "-//W3C//DTD SVG 20010904//EN"
 "http://www.w3.org/TR/2001/REC-SVG-20010904/DTD/svg10.dtd">
<svg version="1.0" xmlns="http://www.w3.org/2000/svg"
 width="270.000000pt" height="270.000000pt" viewBox="0 0 270.000000 270.000000"
 preserveAspectRatio="xMidYMid meet">

<g transform="translate(0.000000,270.000000) scale(0.100000,-0.100000)"
fill="#000000" stroke="none">
<path d="M387 2274 c-4 -23 -2 -25 19 -20 19 5 24 2 24 -11 0 -18 60 -73 79
-73 6 0 11 -4 11 -10 0 -5 6 -10 14 -10 8 0 17 -8 20 -17 5 -12 9 -14 18 -5
17 17 28 15 21 -3 -5 -15 22 -55 38 -55 4 0 20 -11 35 -25 25 -23 28 -24 45
-9 23 20 15 40 -22 56 -16 7 -29 16 -29 20 0 5 -8 8 -18 8 -9 0 -22 10 -27 22
-6 13 -19 27 -30 33 -11 5 -30 19 -41 30 -36 34 -64 55 -74 55 -6 0 -19 9 -30
20 -27 27 -47 25 -53 -6z"/>
<path d="M2417 2224 c-3 -4 -26 -10 -50 -15 -51 -9 -137 -64 -144 -91 -3 -10
-9 -15 -14 -13 -9 6 -44 -11 -67 -32 -7 -7 -16 -13 -20 -13 -17 -1 -122 -108
-132 -135 -7 -19 -14 -25 -19 -17 -10 17 -52 -14 -45 -33 4 -10 0 -15 -11 -15
-25 0 -82 -48 -89 -75 -4 -14 -11 -25 -17 -25 -6 0 -7 6 -3 13 4 6 -19 -14
-52 -47 -32 -32 -79 -75 -103 -95 -25 -20 -65 -55 -89 -78 -24 -24 -48 -43
-52 -43 -5 0 -15 -8 -22 -18 -7 -11 -23 -24 -36 -31 -20 -11 -27 -10 -45 6
-46 40 -141 139 -141 148 -1 5 -20 23 -43 40 -23 16 -42 36 -42 44 -1 11 -4
11 -17 0 -15 -12 -16 -11 -10 8 9 27 -43 70 -62 51 -9 -9 -12 -6 -12 14 0 29
-15 45 -25 28 -11 -18 -27 -11 -20 9 8 27 -15 38 -31 16 -8 -10 -17 -16 -20
-12 -4 4 -1 14 6 22 15 18 16 17 -58 69 -44 32 -55 36 -68 25 -13 -11 -14 -9
-9 14 6 22 3 27 -19 33 -14 3 -26 10 -26 15 0 5 -11 3 -25 -3 -31 -14 -45 -3
-20 16 10 7 15 18 11 24 -11 18 -44 14 -55 -6 -8 -15 0 -25 50 -63 33 -24 67
-50 74 -56 7 -7 23 -13 34 -13 12 0 18 -5 16 -12 -3 -7 12 -24 32 -38 21 -13
46 -32 56 -42 10 -10 27 -18 37 -18 11 0 20 -7 20 -15 0 -19 58 -55 76 -48 8
3 14 0 14 -6 0 -6 -5 -11 -11 -11 -6 0 10 -21 34 -46 25 -25 50 -43 56 -40 6
4 9 1 5 -7 -7 -20 55 -90 74 -82 10 3 12 0 9 -10 -8 -20 69 -86 91 -77 13 4
12 0 -4 -24 -12 -16 -23 -36 -27 -45 -3 -9 -20 -19 -37 -23 -20 -4 -34 -13
-37 -26 -3 -12 -20 -28 -37 -37 -17 -8 -51 -35 -76 -59 -78 -75 -162 -142
-217 -170 -46 -25 -50 -29 -35 -40 15 -12 12 -13 -20 -14 -20 0 -40 -4 -43
-10 -3 -5 0 -10 7 -10 7 0 0 -7 -15 -15 -16 -8 -32 -14 -36 -12 -8 2 -71 -49
-71 -58 0 -3 5 -3 10 0 6 3 10 1 10 -5 0 -7 -6 -10 -14 -7 -8 3 -38 -15 -71
-44 -31 -27 -51 -49 -44 -49 7 0 5 -8 -7 -19 -10 -10 -22 -18 -25 -17 -4 0
-28 -16 -55 -37 -27 -21 -67 -51 -89 -68 -22 -17 -40 -36 -40 -42 0 -6 -15
-15 -32 -19 -18 -5 -33 -13 -33 -19 0 -5 -10 -13 -23 -18 -14 -6 -23 -18 -25
-35 -1 -14 2 -26 6 -26 13 0 124 69 152 94 14 12 42 34 63 50 20 15 37 34 37
42 0 8 11 19 25 24 14 5 59 40 99 77 138 129 145 134 349 267 31 21 57 41 57
45 0 4 14 15 31 25 16 10 34 29 40 43 5 13 13 22 18 18 5 -3 41 23 80 57 48
42 67 65 58 70 -8 5 0 10 21 14 17 4 32 10 32 14 0 4 11 15 24 23 22 15 28 15
65 -1 24 -10 39 -22 36 -29 -5 -15 31 -37 45 -28 6 3 10 -2 10 -13 0 -25 45
-66 61 -57 8 5 10 4 5 -4 -10 -16 21 -26 39 -11 10 8 15 9 15 2 0 -6 -8 -16
-17 -22 -12 -8 -14 -13 -6 -16 7 -3 31 -23 55 -45 24 -21 49 -39 55 -39 7 0
13 -4 13 -9 0 -20 61 -70 78 -65 15 5 15 4 2 -5 -13 -10 -13 -13 4 -26 13 -10
24 -11 37 -4 23 12 24 28 4 35 -8 4 -15 12 -15 20 0 7 -8 18 -17 23 -10 5 -38
30 -63 55 -25 25 -53 46 -62 46 -11 0 -18 8 -18 19 0 11 -8 22 -17 25 -10 4
-37 24 -60 46 -28 27 -47 38 -58 34 -11 -5 -15 -2 -13 7 5 21 -35 67 -65 74
-14 4 -28 16 -31 28 -6 24 -6 24 108 112 69 53 79 67 45 58 -16 -4 -20 -2 -17
8 2 7 18 16 34 20 47 9 76 29 70 46 -4 10 -2 13 8 10 14 -6 66 41 66 60 0 6 7
13 15 15 8 2 46 30 84 63 52 45 68 65 64 79 -4 15 -1 18 12 13 12 -5 37 11 83
52 77 67 256 201 270 201 5 0 17 9 27 20 10 11 31 20 47 20 17 0 28 5 28 14 0
8 7 16 15 20 8 3 15 10 15 16 0 11 -23 14 -33 4z m-287 -204 c0 -5 -4 -10 -10
-10 -5 0 -10 5 -10 10 0 6 5 10 10 10 6 0 10 -4 10 -10z m-995 -860 c-3 -5
-11 -10 -16 -10 -6 0 -7 5 -4 10 3 6 11 10 16 10 6 0 7 -4 4 -10z m700 -90 c3
-5 -3 -10 -14 -10 -12 0 -21 5 -21 10 0 6 6 10 14 10 8 0 18 -4 21 -10z
m-1017 -141 c-2 -6 -8 -10 -13 -10 -5 0 -11 4 -13 10 -2 6 4 11 13 11 9 0 15
-5 13 -11z m-428 -359 c0 -5 -7 -10 -16 -10 -8 0 -12 5 -9 10 3 6 10 10 16 10
5 0 9 -4 9 -10z"/>
<path d="M2436 2185 c-4 -12 -1 -16 11 -13 18 3 21 20 5 26 -5 1 -12 -4 -16
-13z"/>
<path d="M1907 969 c-13 -8 -15 -14 -7 -29 6 -11 16 -17 25 -14 9 4 15 0 15
-9 0 -8 24 -46 53 -83 30 -38 59 -79 66 -92 10 -19 15 -21 27 -11 12 9 14 6
14 -19 0 -20 8 -37 23 -49 12 -10 22 -25 22 -33 0 -9 9 -15 25 -15 18 0 25 5
25 20 0 13 -6 20 -17 19 -13 -1 -17 4 -13 20 5 22 -34 76 -56 76 -7 0 -9 3 -6
6 13 14 -14 44 -40 44 -20 0 -23 3 -14 14 6 7 9 21 5 30 -7 18 -24 22 -24 6 0
-5 -5 -10 -12 -10 -9 0 -9 3 0 12 19 19 14 31 -23 57 -20 13 -33 26 -31 29 8
8 -14 42 -27 42 -7 0 -20 -5 -30 -11z"/>
<path d="M2186 602 c-15 -18 -15 -22 10 -65 14 -26 30 -49 35 -52 5 -4 9 -15
9 -27 0 -12 8 -22 20 -25 15 -4 18 -9 10 -18 -7 -9 -6 -16 5 -25 13 -11 19
-11 31 1 13 14 13 20 -1 52 -8 20 -20 37 -25 37 -6 0 -10 7 -10 16 0 19 -51
124 -60 124 -4 0 -14 -8 -24 -18z"/>
<path d="M268 507 c-6 -14 1 -37 11 -37 10 0 11 39 1 45 -4 3 -10 -1 -12 -8z"/>
</g>
</svg>
